<svg xmlns="http://www.w3.org/2000/svg" viewBox="0 0 52.73 72.18"><defs><style>.cls-1{fill:#fbbeaa;}.cls-2{fill:#f18380;}.cls-3{fill:#21378c;}.cls-4{fill:#4e6ad9;}.cls-5{fill:#2943ac;}.cls-6{fill:#192a6b;}.cls-7{fill:#403d4f;}.cls-8{fill:#534741;}.cls-9{fill:#73102a;}.cls-10{fill:#d65155;}.cls-11{fill:#fff;}</style></defs><g id="Calque_2" data-name="Calque 2"><g id="Calque_1-2" data-name="Calque 1"><path class="cls-1" d="M37.14,40.41a5.66,5.66,0,0,0-3.57,7.16l7.74,23.08c3.81-.48,7.63-1,11.42-1.49L44.29,44A5.65,5.65,0,0,0,37.14,40.41Z"/><rect class="cls-2" x="39.12" y="61.35" width="11.31" height="3.72" transform="translate(-17.73 17.46) rotate(-18.49)"/><path class="cls-3" d="M38.52,64l11.73-3.93L44.8,43.81a6.19,6.19,0,1,0-11.73,3.93Z"/><rect class="cls-4" x="37.57" y="60.02" width="13.39" height="3.34" transform="translate(-17.31 17.27) rotate(-18.53)"/><rect class="cls-1" x="22.47" y="26.97" width="12.04" height="14.17"/><path class="cls-2" d="M22.47,27h12v7.9a13.12,13.12,0,0,1-1.58.1c-4.14,0-8.77-1.13-10.46-5.08Z"/><path class="cls-5" d="M42.5,40.69c-1.06-.66-8-4.7-8-4.7l-3.85,5.14-8.19-5.68s-7.85,3.19-9.94,4.12A4.93,4.93,0,0,0,9.5,44C9.42,45,9.32,59.79,9.25,71.32c11,1.76,22.8.53,34.59-1,.28-10.82.62-23.31.74-24.93C44.81,42.46,43.56,41.36,42.5,40.69Z"/><path class="cls-6" d="M30.66,41.13l-.2-.17V71.79l.4,0V41Z"/><path class="cls-4" d="M34.51,34.87l-3.85,6.26s3.78,3,4,3.23.66.2.75-.15,1.18-7,1.2-7a.23.23,0,0,0,0-.22Z"/><path class="cls-4" d="M22.4,33.7l8.26,7.43s-4.35,3-4.54,3.23a.49.49,0,0,1-.75-.15c-.31-.51-5.43-7.7-5.45-7.76a.22.22,0,0,1,0-.23Z"/><path class="cls-1" d="M40.73,16.46c-.1,4.09,0,7.32-.74,10.44s-3,5.67-8,5.67-10.7-1.63-11.1-7.88c-.82-.89-2.15-4.06-2.2-7.61S19,6,27.05,4.87,41,6.68,40.73,16.46Z"/><path class="cls-7" d="M36.5,19.67c0,.56.33,1,.74,1s.74-.45.74-1-.33-1-.74-1S36.5,19.12,36.5,19.67Z"/><path class="cls-7" d="M27.5,19.67c0,.56.33,1,.74,1s.74-.45.74-1-.33-1-.74-1S27.5,19.12,27.5,19.67Z"/><path class="cls-8" d="M29.31,16.54a2.92,2.92,0,0,1-1,0c-.52-.05-1.17,0-1.17-.1s.38-.7,1.38-.59C29.24,15.93,29.45,16.38,29.31,16.54Z"/><path class="cls-8" d="M36.33,16.54c.07.08.51,0,.86,0s1,0,1-.1A1,1,0,0,0,37,15.85C36.4,15.93,36.22,16.38,36.33,16.54Z"/><path class="cls-2" d="M33.38,23.82c.7,0,1.26-.46,1.28-.79l-.23-2.82a.29.29,0,0,0-.29-.25.27.27,0,0,0-.24.29L34.13,23a1,1,0,0,1-.81.32.25.25,0,0,0-.28.25.28.28,0,0,0,.26.28Z"/><path class="cls-9" d="M32.78,25.82c.84.05,2.25.51,2.26.89a2.61,2.61,0,0,1-2.63,2.56c-3.08,0-3.07-2.38-2.94-2.9S31.23,25.72,32.78,25.82Z"/><path class="cls-10" d="M29.46,27.2a4,4,0,0,1,4.69,1.45,2.47,2.47,0,0,1-1.74.62C30.23,29.27,29.6,28.08,29.46,27.2Z"/><path class="cls-11" d="M29.6,26.19c.43-.37,1.83-.46,3.18-.37.84.05,2.23.51,2.26.89A11.8,11.8,0,0,1,29.6,26.19Z"/><path class="cls-8" d="M25.93,12.83c0,2.47-1,3.54-1.74,4s-1.31.94-1.31,1.79v3c0,.33-.2.6-.46.51s-1.23-.59-1.23-1.07l-3-2.13a11.53,11.53,0,0,1-.84-5.91,7.75,7.75,0,0,1,3.17-5.66c.05-2.13,2-5.92,6.21-7.42a8.75,8.75,0,0,1,0,2.32C28.64.59,35.07.05,37.38.85a5.92,5.92,0,0,1-1.44,2A14.05,14.05,0,0,1,43.9,8a7.46,7.46,0,0,1-2.35,2A9.63,9.63,0,0,1,43.34,15a18.91,18.91,0,0,1-5.52-1.37,8,8,0,0,1-.14,2.63c-2-.13-5.79-2.17-6.85-3.81a11.48,11.48,0,0,1-.23,4A10.34,10.34,0,0,1,25.93,12.83Z"/><path class="cls-1" d="M21.11,21.58c-.05-1.15-.24-2.83-1.85-2.86s-1.83,1.18-1.78,3.09,2,3.56,3.71,2.9Z"/><path class="cls-2" d="M18.73,23h0a.26.26,0,0,0,.22-.3.29.29,0,0,1,.17-.27.64.64,0,0,1,.69,0,.28.28,0,0,0,.29,0,.28.28,0,0,0,.12-.25c-.14-1.61-1.17-1.91-1.21-1.92a.26.26,0,0,0-.33.18.27.27,0,0,0,.18.33s.55.18.76,1a1.15,1.15,0,0,0-.79.16.81.81,0,0,0-.4.8A.27.27,0,0,0,18.73,23Z"/><path class="cls-1" d="M16.49,40.47a5.64,5.64,0,0,0-7.25,3.36L0,69a54.43,54.43,0,0,0,11.1,2.58l8.75-23.87A5.65,5.65,0,0,0,16.49,40.47Z"/><rect class="cls-2" x="6.35" y="57.39" width="3.72" height="11.31" transform="translate(-53.8 49.03) rotate(-69.85)"/><path class="cls-5" d="M20.35,47.9A6.18,6.18,0,0,0,8.74,43.64L2.82,59.76,14.44,64Z"/><rect class="cls-4" x="7.09" y="54.83" width="3.34" height="13.39" transform="translate(-52.02 48.56) rotate(-69.85)"/></g></g></svg>