<svg xmlns="http://www.w3.org/2000/svg" viewBox="0 0 26.59 32.57"><defs><style>.cls-1{fill:#fbbeaa;}.cls-2{fill:#403d4f;}.cls-3{fill:#534741;}.cls-4{fill:#f18380;}.cls-5{fill:#73102a;}.cls-6{fill:#d65155;}.cls-7{fill:#fff;}</style></defs><g id="Calque_2" data-name="Calque 2"><g id="Calque_1-2" data-name="Calque 1"><path class="cls-1" d="M23.42,16.46c-.09,4.09,0,7.32-.73,10.44s-3,5.67-8,5.67S4,30.94,3.63,24.69c-.82-.89-2.15-4.06-2.2-7.61S1.65,6,9.75,4.87,23.65,6.68,23.42,16.46Z"/><path class="cls-2" d="M19.2,19.67c0,.56.33,1,.74,1s.74-.45.74-1-.33-1-.74-1S19.2,19.12,19.2,19.67Z"/><path class="cls-2" d="M10.2,19.67c0,.56.33,1,.74,1s.74-.45.74-1-.34-1-.74-1S10.2,19.12,10.2,19.67Z"/><path class="cls-3" d="M12,16.54a2.93,2.93,0,0,1-1,0c-.52-.05-1.17,0-1.17-.1s.38-.7,1.38-.59C11.94,15.93,12.14,16.38,12,16.54Z"/><path class="cls-3" d="M19,16.54c.06.08.51,0,.86,0s1,0,1-.1a1,1,0,0,0-1.17-.59C19.09,15.93,18.91,16.38,19,16.54Z"/><path class="cls-4" d="M16.08,23.82c.7,0,1.25-.46,1.28-.79l-.23-2.82a.29.29,0,0,0-.29-.25.27.27,0,0,0-.24.29L16.82,23a1,1,0,0,1-.8.32.25.25,0,0,0-.28.25.27.27,0,0,0,.26.28Z"/><path class="cls-5" d="M15.48,25.82c.84.05,2.25.51,2.26.89a2.61,2.61,0,0,1-2.63,2.56c-3.08,0-3.07-2.38-2.94-2.9S13.92,25.72,15.48,25.82Z"/><path class="cls-6" d="M12.16,27.2a4,4,0,0,1,4.69,1.45,2.47,2.47,0,0,1-1.74.62C12.93,29.27,12.3,28.08,12.16,27.2Z"/><path class="cls-7" d="M12.29,26.19c.43-.37,1.84-.46,3.19-.37.83.05,2.23.51,2.26.89A11.85,11.85,0,0,1,12.29,26.19Z"/><path class="cls-3" d="M8.63,12.83c0,2.47-1,3.54-1.75,4s-1.3.94-1.3,1.79v3c0,.33-.2.6-.46.51s-1.23-.59-1.23-1.07L.88,19a11.61,11.61,0,0,1-.83-5.91A7.75,7.75,0,0,1,3.22,7.42c0-2.13,2-5.92,6.2-7.42a8.29,8.29,0,0,1,0,2.32C11.34.59,17.77.05,20.08.85a6.07,6.07,0,0,1-1.44,2,14,14,0,0,1,8,5.08,7.35,7.35,0,0,1-2.35,2A9.54,9.54,0,0,1,26,15a18.91,18.91,0,0,1-5.52-1.37,7.86,7.86,0,0,1-.15,2.63c-2-.13-5.78-2.17-6.85-3.81a11.25,11.25,0,0,1-.22,4A10.34,10.34,0,0,1,8.63,12.83Z"/><path class="cls-1" d="M3.8,21.58c0-1.15-.23-2.83-1.84-2.86S.13,19.9.18,21.81s2,3.56,3.71,2.9Z"/><path class="cls-4" d="M1.43,23h0a.26.26,0,0,0,.22-.3.3.3,0,0,1,.16-.27.65.65,0,0,1,.7,0,.26.26,0,0,0,.28,0A.27.27,0,0,0,3,22.16c-.15-1.61-1.17-1.91-1.21-1.92a.26.26,0,0,0-.33.18.27.27,0,0,0,.18.33,1.31,1.31,0,0,1,.76,1,1.14,1.14,0,0,0-.79.16.82.82,0,0,0-.41.8A.28.28,0,0,0,1.43,23Z"/></g></g></svg>